<svg width="113" height="34" viewBox="0 0 113 34" fill="none" xmlns="http://www.w3.org/2000/svg">
<path d="M79.77 24.1981H67.649C67.3845 24.1981 67.1307 24.0926 66.9436 23.9046C66.7565 23.7167 66.6514 23.4618 66.6514 23.1961V2.41306C66.6514 1.77308 66.9045 1.15931 67.355 0.70677C67.8056 0.254233 68.4167 0 69.0538 0L69.0706 0C69.3861 -1.54744e-07 69.6985 0.0624155 69.99 0.183683C70.2815 0.304951 70.5463 0.482696 70.7694 0.70677C70.9925 0.930844 71.1695 1.19686 71.2902 1.48962C71.411 1.78239 71.4731 2.09618 71.4731 2.41306V19.3552H79.77C80.0855 19.3552 80.3979 19.4176 80.6894 19.5389C80.9809 19.6602 81.2457 19.8379 81.4688 20.062C81.6919 20.2861 81.8689 20.5521 81.9896 20.8448C82.1103 21.1376 82.1725 21.4514 82.1725 21.7683V21.7851C82.1725 22.4251 81.9194 23.0388 81.4688 23.4914C81.0183 23.9439 80.4072 24.1981 79.77 24.1981V24.1981ZM88.3804 24.1981H88.3636C87.7264 24.1981 87.1154 23.9439 86.6648 23.4914C86.2143 23.0388 85.9611 22.4251 85.9611 21.7851V2.41306C85.9611 2.09618 86.0233 1.78239 86.144 1.48962C86.2648 1.19686 86.4417 0.930844 86.6648 0.70677C86.8879 0.482696 87.1527 0.304951 87.4442 0.183684C87.7357 0.0624157 88.0481 0 88.3636 0L88.3804 0C89.0176 0 89.6286 0.254233 90.0792 0.70677C90.5297 1.15931 90.7829 1.77308 90.7829 2.41306V21.7851C90.7829 22.4251 90.5297 23.0388 90.0792 23.4914C89.6286 23.9439 89.0176 24.1981 88.3804 24.1981V24.1981ZM53.396 0H53.396C52.2191 -6.1898e-07 51.0538 0.232826 49.9665 0.685186C48.8792 1.13755 47.8913 1.80058 47.0591 2.63643C46.2269 3.47228 45.5668 4.46459 45.1164 5.55668C44.6661 6.64877 44.4343 7.81927 44.4343 9.00135V21.7851C44.4343 22.4251 44.6874 23.0389 45.1379 23.4914C45.5885 23.9439 46.1995 24.1982 46.8367 24.1982V24.1982C47.1522 24.1982 47.4646 24.1357 47.7561 24.0145C48.0475 23.8932 48.3124 23.7155 48.5355 23.4914C48.7586 23.2673 48.9355 23.0013 49.0562 22.7085C49.177 22.4158 49.2391 22.102 49.2391 21.7851V16.9421H57.5361V21.7851C57.5361 22.102 57.5982 22.4158 57.719 22.7085C57.8397 23.0013 58.0167 23.2673 58.2397 23.4914C58.4628 23.7155 58.7277 23.8932 59.0191 24.0145C59.3106 24.1357 59.623 24.1982 59.9385 24.1982H59.9554C60.2709 24.1982 60.5833 24.1357 60.8747 24.0145C61.1662 23.8932 61.4311 23.7155 61.6541 23.4914C61.8772 23.2673 62.0542 23.0013 62.1749 22.7085C62.2957 22.4158 62.3578 22.102 62.3578 21.7851V9.00136C62.3578 7.81929 62.126 6.64879 61.6756 5.55669C61.2253 4.4646 60.5651 3.47229 59.733 2.63644C58.9008 1.80059 57.9128 1.13755 56.8256 0.68519C55.7383 0.232828 54.5729 6.18982e-07 53.396 0V0ZM57.5361 12.1158H49.2391V9.0097C49.2397 7.90498 49.677 6.8457 50.455 6.06476C51.2329 5.28381 52.2877 4.84511 53.3876 4.84511C54.4875 4.84511 55.5423 5.28381 56.3203 6.06476C57.0982 6.8457 57.5355 7.90498 57.5361 9.0097V12.1158ZM104.038 0H104.038C101.661 0 99.3819 0.948355 97.7013 2.63644C96.0206 4.32452 95.0764 6.61405 95.0764 9.00136V21.7851C95.0764 22.102 95.1386 22.4158 95.2593 22.7085C95.38 23.0013 95.557 23.2673 95.7801 23.4914C96.0032 23.7155 96.268 23.8932 96.5595 24.0145C96.851 24.1357 97.1634 24.1982 97.4789 24.1982V24.1982C98.116 24.1982 98.7271 23.9439 99.1777 23.4914C99.6282 23.0388 99.8813 22.4251 99.8813 21.7851V16.9421H108.178V21.7851C108.178 22.4251 108.431 23.0388 108.882 23.4914C109.333 23.9439 109.944 24.1982 110.581 24.1982H110.598C111.235 24.1982 111.846 23.9439 112.296 23.4914C112.747 23.0388 113 22.4251 113 21.7851V9.00136C113 7.81929 112.768 6.64879 112.318 5.55669C111.867 4.4646 111.207 3.47229 110.375 2.63644C109.543 1.80059 108.555 1.13755 107.468 0.68519C106.38 0.232828 105.215 6.18982e-07 104.038 0V0ZM108.178 12.1158H99.8813V9.0097C99.8813 7.9046 100.318 6.84477 101.096 6.06335C101.874 5.28193 102.93 4.84294 104.03 4.84294H104.03C105.13 4.84294 106.185 5.28194 106.963 6.06335C107.741 6.84477 108.178 7.9046 108.178 9.0097V12.1158ZM36.9703 11.8612C37.7552 11.2342 38.3879 10.4361 38.8205 9.52726C39.2531 8.61844 39.4743 7.62271 39.4673 6.61539C39.4449 2.93775 36.3963 0 32.7347 0H23.2148C23.0838 0 22.954 0.0259197 22.833 0.0762791C22.7119 0.126639 22.602 0.200452 22.5093 0.293504C22.4167 0.386556 22.3432 0.497024 22.2931 0.618603C22.2429 0.740181 22.2171 0.870487 22.2171 1.00208V23.1961C22.2171 23.4618 22.3222 23.7167 22.5093 23.9047C22.6964 24.0926 22.9502 24.1982 23.2148 24.1982H33.4144C37.0816 24.1982 40.1276 21.2486 40.1406 17.5653C40.1453 16.4209 39.8559 15.2947 39.3005 14.2954C38.7452 13.2962 37.9426 12.4578 36.9703 11.8612V11.8612ZM27.0388 4.84294H32.2432C32.5587 4.84293 32.8711 4.90535 33.1626 5.02662C33.4541 5.14789 33.7189 5.32564 33.942 5.54972C34.1651 5.7738 34.3421 6.03982 34.4628 6.3326C34.5836 6.62537 34.6457 6.93917 34.6457 7.25606C34.6457 7.89606 34.3926 8.50985 33.942 8.96239C33.4915 9.41494 32.8804 9.66918 32.2432 9.66919H27.0388V4.84294ZM35.3189 16.9421C35.3189 17.5821 35.0658 18.1959 34.6153 18.6484C34.1647 19.101 33.5536 19.3552 32.9164 19.3552H27.0388V14.529H32.9164C33.2319 14.529 33.5443 14.5914 33.8358 14.7126C34.1273 14.8339 34.3922 15.0117 34.6153 15.2357C34.8384 15.4598 35.0153 15.7258 35.1361 16.0186C35.2568 16.3114 35.3189 16.6252 35.3189 16.9421V16.9421ZM8.96177 28.3595C8.40644 28.3595 7.86357 28.5249 7.40183 28.8348C6.94008 29.1447 6.5802 29.5852 6.36768 30.1005C6.15516 30.6158 6.09956 31.1829 6.2079 31.73C6.31624 32.277 6.58366 32.7796 6.97634 33.174C7.36902 33.5684 7.86933 33.837 8.41399 33.9458C8.95866 34.0546 9.52322 33.9988 10.0363 33.7853C10.5493 33.5719 10.9879 33.2104 11.2964 32.7466C11.6049 32.2828 11.7696 31.7376 11.7696 31.1798C11.7696 30.8094 11.697 30.4427 11.5559 30.1005C11.4148 29.7584 11.2079 29.4475 10.9472 29.1856C10.6865 28.9237 10.3769 28.7159 10.0363 28.5742C9.69562 28.4325 9.3305 28.3595 8.96177 28.3595V28.3595ZM13.1187 0.00834636V15.222C13.1187 16.3293 12.6807 17.3913 11.9011 18.1743C11.1216 18.9573 10.0643 19.3972 8.96178 19.3972H8.96177C7.85929 19.3972 6.80196 18.9573 6.02239 18.1743C5.24282 17.3913 4.80487 16.3293 4.80487 15.222V0.00834636H0V15.222C0 17.6093 0.944183 19.8988 2.62484 21.5869C4.3055 23.275 6.58496 24.2233 8.96176 24.2233H8.96178C11.3386 24.2233 13.618 23.275 15.2987 21.5869C16.9794 19.8988 17.9235 17.6093 17.9235 15.222V0.00834636H13.1187Z" fill="#474294"/>
</svg>
